<?xml version="1.0" encoding="UTF-8"?>
<?xml-stylesheet href="svgStyle.css" type="text/css"?>
<svg xmlns="http://www.w3.org/2000/svg" version="1.0" baseProfile="tiny" xml:space="preserve" style="shape-rendering:geometricPrecision; fill-rule:evenodd;" width="4.69mm" height="5.12856mm" viewBox="-2.345 -4.635 4.69 5.12856">
		<title>LANBY</title>
		<desc>LANBY description.</desc>
		<metadata>
			<S100SVG xmlns:iho="http://www.iho.int/SVGMetadata">
				<Description publisher="KHOA" creationDate="2020-12-06" source="S52Preslib4.0" format="S100SVG" version="0.1" />
			</S100SVG>
		</metadata>
		<rect class="symbolBox layout" fill="none" x="-2.3" y="-4.59" height="5.03856" width="4.6" />
		<rect class="svgBox layout" fill="none" x="-2.3" y="-4.59" height="5.03856" width="4.6" />
		<path d=" M 1.36,-1.22 L 0.96,-2.44 L 0.59,-2.44 L 0.59,-4.59 L -0.59,-4.59 L -0.59,-2.44 L -0.95,-2.44 L -1.36,-1.22 L -2.3,-1.22 L -2.3,0 L 2.3,0 L 2.3,-1.22 L 1.36,-1.22 Z" class="f00006"/>
    <path d=" M 0.59,-2.44 L 0.59,-4.59 L 0.19,-4.59 L 0.19,-2.44 L 0.56,-1.22 L 0.56,0 L 2.3,0 L 2.3,-1.22 L 1.36,-1.22 L 0.96,-2.44 L 0.59,-2.44 Z" class="f00001"/>
  	<path d=" M -0.59,-2.44 L -0.59,-4.59 L -0.19,-4.59 L -0.19,-2.44 L -0.56,-1.22 L -0.56,0 L -2.3,0 L -2.3,-1.22 L -1.36,-1.22 L -0.96,-2.44 L -0.59,-2.44 Z" class="f00001"/>
		<path d=" M -0.59,-4.59 L -0.59,-4.59 L -0.59,-2.44 L 0.59,-2.44 L 0.59,-4.59 L -0.59,-4.59 Z" class="sl f0  s00005" style="stroke-width:0.32;" />
		<path d=" M -2.3,-1.22 L -2.3,-1.22 L -2.3,0 L 2.3,0 L 2.3,-1.22 L -2.3,-1.22 Z" class="sl f0 s00005" style="stroke-width:0.32;" />
		<path d=" M 1.36,-1.22 L -1.36,-1.22 L -0.95,-2.44 L 0.96,-2.44 L 1.36,-1.22 Z" class="sl f0 s00005" style="stroke-width:0.32;" />
  	<circle class="f00008" cx="0" cy="-0.00036" r="0.44892" />
  		<circle class="f0 s00005" style="stroke-width:0.32;" cx="0" cy="-0.00036" r="0.44892" /> 
		<circle class="pivotPoint layout" fill="none" cx="0" cy="0" r="0.36" />
	</svg>