<?xml version="1.0" encoding="UTF-8"?>
<?xml-stylesheet href="svgStyle.css" type="text/css"?>
<svg xmlns="http://www.w3.org/2000/svg" version="1.0" baseProfile="tiny" xml:space="preserve" style="shape-rendering:geometricPrecision; fill-rule:evenodd;" width="7.24mm" height="5.15856mm" viewBox="-1.78 -4.65 7.24 5.15856">
		<title>ODAS 글자크기수정</title>
		<desc>ODAS 글자크기수정 description.</desc>
		<metadata>
			<S100SVG xmlns:iho="http://www.iho.int/SVGMetadata">
				<Description publisher="KHOA" creationDate="2020-12-09" source="S52Preslib4.0" format="S100SVG" version="0.1" />
			</S100SVG>
		</metadata>
		<rect class="symbolBox layout" fill="none" x="-1.72" y="-4.59" height="5.03856" width="7.12" />
		<rect class="svgBox layout" fill="none" x="-1.72" y="-4.59" height="5.03856" width="7.12" />
		<path d=" M 0.84,-1.3 L 0.65,-2.94 L 0.46,-4.59 L -0.46,-4.59 L -0.65,-2.94 L -0.84,-1.3 L -0.84,-1.3 L -1.72,-0.78 L -1.72,0 L 1.72,0 L 1.72,-0.78 L 0.84,-1.3 Z" class="f00003" />
		<path d=" M 0.84,-1.3 L 0.65,-2.94 L 0.46,-4.59 L -0.46,-4.59 L -0.65,-2.94 L -0.84,-1.3 L -0.84,-1.3 L -1.72,-0.78 L -1.72,0 L 1.72,0 L 1.72,-0.78 L 0.84,-1.3 Z" class="sl f0 s00005" style="stroke-width:0.32;" />
		<circle class="f00008" cx="0" cy="0" r="0.44856" />
		<circle class="f0 s00005" style="stroke-width:0.32;" cx="0" cy="0" r="0.44856" />
		<path d=" M -0.85,-1.3 L 0.84,-1.3 Z" class="f0 s00005" style="stroke-width:0.32;" />
		<path d=" M 4.16,-4.35 L 3.92,-4.35 L 3.49,-3.19 L 3.72,-3.19 L 3.82,-3.49 L 4.26,-3.49 L 4.36,-3.19 L 4.58,-3.19 L 4.16,-4.35 Z" class="f00005" />
		<path d=" M 3.88,-3.67 L 4.04,-4.17 L 4.2,-3.67 L 3.88,-3.67 Z" class="f00006" />
		<path d=" M 2.23,-3.92 L 2.19,-4.04 L 2.14,-4.17 L 2.08,-4.22 L 1.99,-4.29 L 1.91,-4.33 L 1.82,-4.36 L 1.7,-4.36 L 1.61,-4.36 L 1.52,-4.34 L 1.42,-4.31 L 1.34,-4.25 L 1.27,-4.2 L 1.21,-4.1 L 1.18,-4 L 1.16,-3.88 L 1.15,-3.75 L 1.16,-3.64 L 1.19,-3.54 L 1.22,-3.44 L 1.27,-3.35 L 1.35,-3.28 L 1.45,-3.22 L 1.58,-3.18 L 1.68,-3.17 L 1.75,-3.18 L 1.89,-3.2 L 1.96,-3.23 L 2.06,-3.3 L 2.13,-3.37 L 2.18,-3.47 L 2.22,-3.57 L 2.23,-3.67 L 2.24,-3.8 L 2.23,-3.92 Z" class="f00005" />
		<path d=" M 2.01,-3.65 L 1.98,-3.55 L 1.95,-3.49 L 1.9,-3.42 L 1.85,-3.38 L 1.76,-3.36 L 1.7,-3.35 L 1.63,-3.36 L 1.57,-3.37 L 1.49,-3.41 L 1.45,-3.46 L 1.41,-3.52 L 1.38,-3.59 L 1.37,-3.7 L 1.37,-3.79 L 1.37,-3.89 L 1.39,-3.98 L 1.43,-4.04 L 1.46,-4.09 L 1.49,-4.12 L 1.54,-4.16 L 1.59,-4.17 L 1.65,-4.18 L 1.7,-4.18 L 1.76,-4.18 L 1.81,-4.17 L 1.86,-4.15 L 1.91,-4.11 L 1.94,-4.08 L 1.96,-4.04 L 2,-3.96 L 2.01,-3.86 L 2.02,-3.74 L 2.01,-3.65 Z" class="f00006" />
		<path d=" M 3.41,-3.92 L 3.39,-4.02 L 3.36,-4.09 L 3.29,-4.18 L 3.23,-4.24 L 3.15,-4.28 L 3.05,-4.32 L 2.95,-4.34 L 2.87,-4.34 L 2.49,-4.34 L 2.49,-3.19 L 2.84,-3.19 L 2.95,-3.2 L 3.06,-3.22 L 3.16,-3.27 L 3.24,-3.32 L 3.31,-3.39 L 3.36,-3.47 L 3.4,-3.55 L 3.42,-3.67 L 3.43,-3.8 L 3.41,-3.92 Z" class="f00005" />
		<path d=" M 3.21,-3.73 L 3.19,-3.6 L 3.14,-3.51 L 3.08,-3.44 L 3.01,-3.4 L 2.92,-3.37 L 2.84,-3.36 L 2.69,-3.36 L 2.69,-4.17 L 2.87,-4.17 L 2.94,-4.17 L 3.01,-4.15 L 3.08,-4.11 L 3.13,-4.05 L 3.17,-3.99 L 3.2,-3.89 L 3.21,-3.81 L 3.21,-3.73 Z" class="f00006" />
		<path d=" M 4.66,-3.43 L 4.66,-3.24 L 4.74,-3.2 L 4.82,-3.18 L 4.93,-3.17 L 5.02,-3.17 L 5.12,-3.19 L 5.2,-3.21 L 5.28,-3.25 L 5.33,-3.3 L 5.38,-3.38 L 5.4,-3.48 L 5.4,-3.56 L 5.38,-3.65 L 5.32,-3.72 L 5.24,-3.78 L 5.15,-3.83 L 5.06,-3.87 L 4.95,-3.92 L 4.89,-3.97 L 4.88,-4.04 L 4.89,-4.12 L 4.93,-4.16 L 5,-4.18 L 5.06,-4.18 L 5.14,-4.17 L 5.22,-4.15 L 5.32,-4.12 L 5.38,-4.28 L 5.29,-4.32 L 5.15,-4.36 L 5.03,-4.36 L 4.92,-4.34 L 4.82,-4.31 L 4.75,-4.25 L 4.7,-4.18 L 4.67,-4.07 L 4.68,-3.99 L 4.69,-3.92 L 4.74,-3.84 L 4.79,-3.8 L 4.86,-3.75 L 4.93,-3.71 L 4.99,-3.68 L 5.08,-3.64 L 5.14,-3.6 L 5.17,-3.57 L 5.2,-3.52 L 5.19,-3.45 L 5.16,-3.41 L 5.14,-3.38 L 5.1,-3.37 L 5.04,-3.35 L 4.98,-3.35 L 4.87,-3.36 L 4.76,-3.39 L 4.66,-3.43 Z" class="f00005" />
		<circle class="pivotPoint layout" fill="none" cx="0" cy="0" r="0.36" />
	</svg>