<?xml version="1.0" encoding="UTF-8"?>
<?xml-stylesheet href="svgStyle.css" type="text/css"?>
<svg xmlns="http://www.w3.org/2000/svg" version="1.0" baseProfile="tiny" xml:space="preserve" style="shape-rendering:geometricPrecision; fill-rule:evenodd;" width="4.69mm" height="4.51856mm" viewBox="-2.345 -4.025 4.69 4.51856">
		<title>구형 (종선)</title>
		<desc>구형 (종선) description.</desc>
		<metadata>
			<S100SVG xmlns:iho="http://www.iho.int/SVGMetadata">
				<Description publisher="KHOA" creationDate="2020-12-06" source="S52Preslib4.0" format="S100SVG" version="0.1" />
			</S100SVG>
		</metadata>
		<rect class="symbolBox layout" fill="none" x="-2.3" y="-3.98" height="4.42856" width="4.6" />
		<rect class="svgBox layout" fill="none" x="-2.3" y="-3.98" height="4.42856" width="4.6" />
		<path d=" M -1.56,0 L -1.72,-0.15 L -1.88,-0.35 L -2.04,-0.62 L -2.16,-0.88 L -2.22,-1.1 L -2.27,-1.34 L -2.3,-1.55 L -2.29,-1.78 L -2.27,-2.08 L -2.22,-2.3 L -2.14,-2.54 L -2.04,-2.74 L -1.93,-2.94 L -1.77,-3.16 L -1.61,-3.33 L -1.41,-3.5 L -1.2,-3.65 L -0.95,-3.78 L -0.68,-3.88 L -0.43,-3.95 L -0.19,-3.97 L 0.05,-3.98 L 0.26,-3.97 L 0.49,-3.93 L 0.69,-3.88 L 0.91,-3.79 L 1.1,-3.7 L 1.31,-3.57 L 1.47,-3.45 L 1.61,-3.32 L 1.75,-3.18 L 1.88,-3.01 L 2,-2.83 L 2.1,-2.63 L 2.19,-2.38 L 2.26,-2.11 L 2.29,-1.93 L 2.3,-1.66 L 2.27,-1.32 L 2.21,-1.05 L 2.12,-0.79 L 2,-0.55 L 1.9,-0.38 L 1.71,-0.14 L 1.57,0 L -1.56,0 Z" class="f00006"/>
		<path d=" M -1.56,-0.01 L -1.75,-0.21 L -1.94,-0.47 L -2.15,-0.87 L -2.23,-1.15 L -2.28,-1.51 L -2.3,-1.74 L -2.26,-2.09 L -2.19,-2.4 L -2.1,-2.63 L -1.97,-2.87 L -1.82,-3.09 L -1.64,-3.3 L -1.44,-3.48 L -1.22,-3.64 L -0.99,-3.77 L -0.74,-3.86 L -0.52,-3.93 L 0.02,-3.98 L -0.16,-3.75 L -0.3,-3.57 L -0.39,-3.42 L -0.48,-3.24 L -0.57,-3.05 L -0.66,-2.86 L -0.72,-2.62 L -0.78,-2.39 L -0.83,-2.07 L -0.85,-1.85 L -0.86,-1.49 L -0.82,-1.18 L -0.75,-0.85 L -0.66,-0.55 L -0.55,-0.25 L -0.4,0 L -1.56,-0.01 Z" class="f00001" />
		<path d=" M 0.02,-3.98 L 0.07,-3.91 L 0.14,-3.83 L 0.21,-3.73 L 0.31,-3.6 L 0.4,-3.47 L 0.47,-3.34 L 0.55,-3.16 L 0.61,-3.02 L 0.69,-2.84 L 0.73,-2.71 L 0.81,-2.43 L 0.83,-2.26 L 0.86,-2.06 L 0.88,-1.77 L 0.89,-1.57 L 0.87,-1.31 L 0.85,-1.18 L 0.81,-0.98 L 0.77,-0.82 L 0.72,-0.66 L 0.67,-0.48 L 0.61,-0.36 L 0.55,-0.2 L 0.47,-0.07 L 0.42,0 L 1.57,0 L 1.74,-0.19 L 1.85,-0.33 L 1.96,-0.49 L 2.08,-0.73 L 2.16,-0.89 L 2.23,-1.14 L 2.28,-1.43 L 2.3,-1.67 L 2.29,-1.92 L 2.23,-2.27 L 2.14,-2.54 L 2.01,-2.8 L 1.89,-2.99 L 1.75,-3.19 L 1.61,-3.33 L 1.45,-3.48 L 1.28,-3.6 L 1.12,-3.7 L 0.92,-3.8 L 0.71,-3.87 L 0.54,-3.93 L 0.02,-3.98 Z" class="f00001"/>
		<path d=" M -1.56,0 L -1.72,-0.15 L -1.88,-0.35 L -2.04,-0.62 L -2.16,-0.88 L -2.22,-1.1 L -2.27,-1.34 L -2.3,-1.55 L -2.29,-1.78 L -2.27,-2.08 L -2.22,-2.3 L -2.14,-2.54 L -2.04,-2.74 L -1.92,-2.94 L -1.77,-3.16 L -1.61,-3.33 L -1.41,-3.5 L -1.2,-3.65 L -0.95,-3.78 L -0.68,-3.88 L -0.43,-3.95 L -0.19,-3.97 L 0.05,-3.98 L 0.26,-3.97 L 0.49,-3.93 L 0.69,-3.88 L 0.91,-3.79 L 1.1,-3.7 L 1.31,-3.57 L 1.47,-3.45 L 1.61,-3.32 L 1.75,-3.18 L 1.88,-3.01 L 2,-2.83 L 2.1,-2.63 L 2.19,-2.38 L 2.26,-2.11 L 2.29,-1.93 L 2.3,-1.66 L 2.27,-1.32 L 2.21,-1.05 L 2.12,-0.79 L 2,-0.55 L 1.9,-0.38 L 1.71,-0.14 L 1.57,0 L -1.56,0 Z" class="sl f0 s00005" style="stroke-width:0.32;" />
		<path d=" M -2.21,0 L 2.21,0 Z" class="sl f0 s00005" style="stroke-width:0.32;" />
		<circle class="f00008" cx="0" cy="-0.00036" r="0.44892" />
		<circle class="f0 s00005" style="stroke-width:0.32;" cx="0" cy="-0.00036" r="0.44892" />
		<circle class="pivotPoint layout" fill="none" cx="0" cy="0" r="0.36" />
	</svg>