<?xml version="1.0" encoding="UTF-8"?>
<?xml-stylesheet href="svgStyle.css" type="text/css"?>
<svg xmlns="http://www.w3.org/2000/svg" version="1.0" baseProfile="tiny" xml:space="preserve" style="shape-rendering:geometricPrecision; fill-rule:evenodd;" width="4mm" height="1.7mm" viewBox="-2 -0.45 4 1.7">
		<title>분류기준선-2</title>
		<desc>분류기준선-2 description.</desc>
		<metadata>
			<S100SVG xmlns:iho="http://www.iho.int/SVGMetadata">
				<Description publisher="KHOA" creationDate="2020-12-08" source="S52Preslib4.0" format="S100SVG" version="0.1" />
			</S100SVG>
		</metadata>
		<rect class="symbolBox layout" fill="none" x="-1.91" y="-0.36" height="1.52" width="3.82" />
		<rect class="svgBox layout" fill="none" x="-1.91" y="-0.36" height="1.52" width="3.82" />
		<path d=" M -1.91,1.16 L -1.81,1.15 L -1.71,1.11 L -1.63,1.07 L -1.54,1 L -1.47,0.92 L -1.42,0.85 L -1.37,0.8 L -1.31,0.75 L -1.24,0.74 L -1.18,0.76 L -1.13,0.8 L -1.08,0.86 L -1.02,0.91 L -0.97,0.96 L -0.92,1.02 L -0.83,1.09 L -0.77,1.13 L -0.7,1.15 L -0.63,1.16 L -0.53,1.15 L -0.43,1.11 L -0.35,1.07 L -0.26,1 L -0.19,0.92 L -0.14,0.85 L -0.09,0.8 L -0.03,0.75 L 0.04,0.74 L 0.1,0.76 L 0.15,0.8 L 0.2,0.86 L 0.25,0.91 L 0.31,0.96 L 0.36,1.02 L 0.45,1.09 L 0.51,1.13 L 0.58,1.15 L 0.65,1.16 L 0.75,1.15 L 0.85,1.11 L 0.93,1.07 L 1.02,1 L 1.09,0.92 L 1.14,0.85 L 1.19,0.8 L 1.25,0.75 L 1.32,0.74 L 1.38,0.76 L 1.43,0.8 L 1.48,0.86 L 1.53,0.91 L 1.59,0.96 L 1.64,1.02 L 1.71,1.06 L 1.78,1.11 L 1.86,1.14 L 1.91,1.16" class="sl f0 s00005" style="stroke-width:0.32;" />
		<circle class="pivotPoint layout" fill="none" cx="0" cy="0" r="0.36" />
	</svg>